<?xml version="1.0" standalone="no"?>
<!DOCTYPE svg PUBLIC "-//W3C//DTD SVG 20010904//EN"
 "http://www.w3.org/TR/2001/REC-SVG-20010904/DTD/svg10.dtd">
<svg version="1.0" xmlns="http://www.w3.org/2000/svg"
 width="512.000000pt" height="512.000000pt" viewBox="0 0 512.000000 512.000000"
 preserveAspectRatio="xMidYMid meet">
<metadata>
Created by potrace 1.11, written by Peter Selinger 2001-2013
</metadata>
<g transform="translate(0.000000,512.000000) scale(0.100000,-0.100000)"
fill="#000000" stroke="none">
<path d="M397 5105 c-191 -53 -347 -216 -387 -405 -8 -41 -10 -598 -8 -2175
l3 -2120 32 -75 c60 -138 170 -245 311 -302 l57 -23 2155 0 2155 0 75 32 c138
60 245 170 302 311 l23 57 0 2145 c0 2089 -1 2147 -19 2204 -49 148 -179 281
-333 339 l-58 22 -2130 2 c-1743 1 -2139 -1 -2178 -12z m3083 -1385 l0 -230
-637 -2 -637 -3 2 -315 c1 -173 2 -321 2 -327 0 -10 116 -13 547 -13 l546 0
-6 -97 c-4 -54 -7 -153 -7 -220 l0 -123 -540 0 -540 0 -5 -22 c-3 -13 -4 -180
-3 -373 l3 -350 638 -3 637 -2 0 -220 0 -220 -920 0 -920 0 0 1375 0 1375 920
0 920 0 0 -230z"/>
</g>
</svg>
