<svg version="1" xmlns="http://www.w3.org/2000/svg" width="346.667" height="346.667" viewBox="0 0 260.000000 260.000000"><path d="M118 1C60.7 6.5 15 47.5 2.8 104.3c-2.8 13.2-3 37.9-.4 50.2C8.2 181.6 19.7 203 38.9 222c19.1 19 39.2 29.8 66.2 35.6 11.8 2.6 38 2.6 49.8 0 27-5.8 47.1-16.6 66.2-35.6 19.2-19 30.7-40.4 36.5-67.5 2.6-12.3 2.4-37-.4-50.2-8.5-39.3-31.8-70.2-67.4-89.2C169.6 4.2 141.6-1.2 118 1zm62.2 82.1c29.4 6.2 45.5 39.9 32.3 67.7-10.9 22.9-38.3 33.3-60.8 22.9-30-13.9-37.3-54.5-13.8-77.7 11.7-11.6 26.8-16.2 42.3-12.9zM117 92.5v9.5H74v18h37v18H74v20h44v19H52V83h65v9.5z"/><path d="M160.3 104.1c-18.6 9.2-18.8 41.9-.4 51.6 5.1 2.7 14.2 3.1 19.5.9 15.8-6.6 20.9-32.6 9-46.5-6.9-8-19-10.5-28.1-6z"/></svg>